# xmcd
#
# Track frame offsets:
# 150
# 11487
# 25435
# 35585
# 49180
#
# Disc length: 825 seconds
#
#
# Revision: 0
# Processed by: cddbd v1.5.1PL0 Copyright (c) Steve Scherf et al.
# Submitted via: FreeRIP 2.931 
#
DISCID=39033705
DTITLE=Woody's Truck Stop - Woody's Truck Stop: 1966 Demos with Todd Rundgren
DYEAR=1900
DGENRE=
TTITLE0=That's Right You're Wrong
TTITLE1=Why Is It
TTITLE2=The Times Have Changed
TTITLE3=She Must Be Blind
TTITLE4=Rock Me Baby
EXTD=
EXTT0=
EXTT1=
EXTT2=
EXTT3=
EXTT4=
PLAYORDER=
